<svg version="1.1" id="Layer_1" xmlns="http://www.w3.org/2000/svg" xmlns:xlink="http://www.w3.org/1999/xlink" x="0px" y="0px"
	 width="100%" viewBox="0 0 288 336" enable-background="new 0 0 288 336" xml:space="preserve">
<path fill="#000000" opacity="1.000000" stroke="none" 
	d="
M148.954071,21.710812 
	C182.508163,21.083740 206.176315,47.523159 205.470978,77.821709 
	C204.827469,105.464241 204.545776,133.162033 205.547791,160.783112 
	C206.591568,189.555511 186.431168,218.462875 149.848969,218.952545 
	C132.573822,219.183792 116.239922,217.294586 102.772469,205.053452 
	C91.192497,194.527863 84.873535,181.463333 84.751190,165.846130 
	C84.513657,135.524704 84.589203,105.199837 84.699875,74.876999 
	C84.806374,45.698059 108.720886,21.931368 137.966187,21.719402 
	C141.464874,21.694044 144.963898,21.712788 148.954071,21.710812 
M179.731964,196.247559 
	C189.033676,187.637375 193.729401,177.025818 193.718445,164.319717 
	C193.693039,134.833832 193.761581,105.347755 193.682541,75.862053 
	C193.625305,54.504440 179.102676,37.646523 158.061676,34.068920 
	C150.924561,32.855396 143.756012,33.222961 136.631058,33.480114 
	C113.901024,34.300480 96.330437,52.135891 96.161110,74.770088 
	C95.934296,105.087120 95.942780,135.408325 96.163300,165.725449 
	C96.308075,185.629044 109.854424,201.754364 129.263474,205.989441 
	C136.027878,207.465439 142.875793,206.518402 149.679749,206.818558 
	C160.843918,207.311066 170.653259,203.871292 179.731964,196.247559 
z"/>
<path fill="#000000" opacity="1.000000" stroke="none" 
	d="
M128.523590,279.462341 
	C131.592239,282.908905 134.419708,286.103394 137.247177,289.297882 
	C137.806488,288.957031 138.365799,288.616211 138.925110,288.275360 
	C138.925110,283.680115 138.919907,279.084839 138.926208,274.489594 
	C138.939194,264.998199 138.883636,255.505783 139.011856,246.015884 
	C139.062866,242.241379 140.253708,238.986542 144.812714,238.716202 
	C148.616577,238.490646 150.955109,241.061356 151.019211,246.112122 
	C151.165009,257.599762 151.058716,269.090607 151.055237,280.580170 
	C151.054474,283.063782 151.055115,285.547363 151.055115,289.277679 
	C154.540054,285.940338 157.235168,283.370392 159.917435,280.787079 
	C161.954178,278.825470 163.827057,276.658905 166.039368,274.923279 
	C168.824814,272.737946 171.965179,272.328369 174.495575,275.292603 
	C176.852066,278.053101 176.119659,280.836334 173.673737,283.280670 
	C165.664459,291.284698 157.656525,299.290070 149.648453,307.295288 
	C146.420242,310.522369 143.281372,310.335999 140.113724,307.151642 
	C132.363052,299.360046 124.587120,291.593475 116.799339,283.838959 
	C114.142670,281.193634 112.737488,278.233978 115.673325,275.122192 
	C118.689880,271.924805 121.912697,272.701263 124.804626,275.625122 
	C125.975372,276.808777 127.123817,278.014526 128.523590,279.462341 
z"/>
<path fill="#000000" opacity="1.000000" stroke="none" 
	d="
M139.007507,69.523735 
	C139.371140,65.200661 140.871384,61.986439 145.257339,62.187271 
	C149.985977,62.403801 150.983841,66.170090 151.014084,70.071175 
	C151.100388,81.202660 151.090759,92.335472 151.025833,103.467224 
	C151.002258,107.509987 149.574585,111.043655 144.950851,111.037727 
	C140.240784,111.031693 139.026550,107.303535 138.993591,103.363258 
	C138.900436,92.231956 138.972580,81.099274 139.007507,69.523735 
z"/>
</svg>