<svg width="61" height="78" viewBox="0 0 61 78" fill="none" xmlns="http://www.w3.org/2000/svg">
<g filter="url(#filter0_d_314_1695)">
<path d="M7.31682 23.4392C5.58691 23.2871 1.92179 22.7206 1.10056 21.6713C0.853434 23.7433 1.7507 26.9979 7.31682 23.4392Z" fill="url(#paint0_linear_314_1695)"/>
<path d="M7.31682 23.4392C5.58691 23.2871 1.92179 22.7206 1.10056 21.6713C0.853434 23.7433 4.20067 23.4392 7.31682 23.4392Z" fill="url(#paint1_linear_314_1695)"/>
<path d="M8.64006 56.7447C-0.940957 45.8405 7.11926 35.4345 12.347 31.5945C12.0733 33.8301 13.0313 37.4686 13.5446 39.0084C7.97846 44.1639 7.95569 52.9807 8.64006 56.7447Z" fill="url(#paint2_linear_314_1695)"/>
<path d="M8.64006 56.7447C-0.940956 45.8405 7.11926 35.4345 12.347 31.5945C12.29 32.2218 11.5373 32.9062 11.0811 33.4765C5.51499 38.632 3.33629 43.8559 8.64006 56.7447Z" fill="url(#paint3_linear_314_1695)"/>
<path d="M12.4496 11.3122C19.9319 10.126 26.517 15.7605 28.8742 18.7261C28.2355 13.7531 25.8706 10.5328 24.7681 9.54426C19.9319 5.39248 14.5407 8.99296 12.4496 11.3122Z" fill="url(#paint4_linear_314_1695)"/>
<path d="M12.4496 11.3122C18.2667 6.15919 26.517 15.7605 28.8742 18.7261C28.2355 13.7531 25.8706 10.5328 24.7681 9.54426C19.9319 5.39248 14.5407 8.99296 12.4496 11.3122Z" fill="url(#paint5_linear_314_1695)"/>
<path d="M20.6995 58.9117C17.5058 54.6687 17.1638 49.3307 18.0192 40.5481C9.46482 48.4182 12.3447 59.6339 14.3693 62.3335C17.4487 66.4397 23.6078 70.4508 26.6874 73.4543C26.0222 70.3747 23.8932 63.1547 20.6995 58.9117Z" fill="url(#paint6_linear_314_1695)"/>
<path d="M18.0192 40.5481C8.7998 50.9846 15.6809 60.4857 18.8745 64.7288C21.7146 68.502 25.0508 71.8775 26.3161 73.1009C26.4443 73.2202 26.5682 73.338 26.6874 73.4543C26.5991 73.3721 26.4736 73.2532 26.3161 73.1009C23.1354 70.1399 17.3294 66.2806 14.3693 62.3335C12.3447 59.6339 9.46482 48.4182 18.0192 40.5481Z" fill="url(#paint7_linear_314_1695)"/>
<path d="M4.20058 29.9976C6.19225 22.9871 13.9486 24.4463 17.6598 24.1805C14.7976 26.1007 12.5256 27.8513 9.44865 32.3509C6.98707 35.9507 2.82571 36.1972 1.48402 35.6693C2.62826 35.491 3.99121 30.6333 4.20058 29.9976Z" fill="url(#paint8_linear_314_1695)"/>
<path d="M6.08251 31.5945C10.1887 26.7318 14.3518 24.1806 17.6597 24.1806C14.7976 26.1007 12.5256 27.8514 9.44859 32.351C6.98701 35.9507 2.82565 36.1973 1.48395 35.6694C2.62819 35.491 3.56202 34.5794 6.08251 31.5945Z" fill="url(#paint9_linear_314_1695)"/>
<path d="M8.68572 14.3543C18.4378 10.2654 22.0056 15.8705 23.8557 19.105C20.7693 16.9079 14.7263 20.0777 12.4982 21.1521C12.1633 21.3137 11.807 21.4215 11.4372 21.461C4.9406 22.1538 1.5242 16.152 0.929659 14.3543C4.62977 15.833 7.68361 14.9704 8.68572 14.3543Z" fill="url(#paint10_linear_314_1695)"/>
<path d="M8.68572 14.3543C18.4378 10.2654 22.0056 15.8705 23.8557 19.105C20.7751 16.9121 14.5578 18.1536 12.2874 18.9109C11.9346 19.0286 11.5788 19.1386 11.2098 19.1848C4.72487 19.996 1.5242 16.152 0.929659 14.3543C4.62977 15.833 7.68361 14.9704 8.68572 14.3543Z" fill="url(#paint11_linear_314_1695)"/>
<path d="M30.2828 25.8345C29.8836 21.9565 23.9525 21.6333 21.158 21.5002L17.6222 28.1157L24.3192 30.521C25.1707 30.8268 25.761 31.6069 25.8238 32.5095L26.3477 40.035H34.2179L34.7418 32.5095C34.8046 31.6069 35.3949 30.8268 36.2464 30.521L42.9434 28.1157L39.2935 21.5002C33.5905 21.5002 30.8531 23.1541 30.2828 25.8345Z" fill="url(#paint12_linear_314_1695)"/>
<path d="M30.1117 37.9819C30.9671 27.0322 23.9525 21.8615 21.158 21.7284L17.6222 28.1157L24.3192 30.521C25.1707 30.8268 25.761 31.607 25.8238 32.5095L26.3477 40.035H34.2179L34.7418 32.5095C34.8046 31.607 35.3949 30.8268 36.2464 30.521L42.9434 28.1157L39.4076 21.7284C32.0507 24.2947 30.535 32.5641 30.1117 37.9819Z" fill="url(#paint13_linear_314_1695)"/>
<path d="M34.9024 35.5297L43.0006 28.8572L45.1677 33.9899L39.0085 39.5218V45.2247L34.9024 48.6465L30.6821 45.9091V43.4568L34.9024 41.1186V35.5297Z" fill="url(#paint14_linear_314_1695)"/>
<path d="M34.9024 35.5297L43.0006 28.8572L43.2287 29.3704L37.5257 37.2406V44.1412L34.9024 48.7036L30.6821 45.9091V43.4568L34.9024 41.1186V35.5297Z" fill="url(#paint15_linear_314_1695)"/>
<path d="M25.6635 35.5297L17.5652 28.8572L15.3981 33.9899L21.5573 39.5218V45.2247L25.6635 48.6465L29.8837 45.9091V43.4568L25.6635 41.1186V35.5297Z" fill="url(#paint16_linear_314_1695)"/>
<path d="M25.6635 35.5297L17.5652 28.8572L17.3371 29.3704L23.0401 37.2406V44.1412L25.6635 48.7036L29.8837 45.9091V43.4568L25.6635 41.1186V35.5297Z" fill="url(#paint17_linear_314_1695)"/>
<path d="M25.4924 50.9846L30.2829 48.1902L35.0734 50.9846L30.2829 54.3494L25.4924 50.9846Z" fill="url(#paint18_linear_314_1695)"/>
<path d="M26.1766 50.5854L30.2827 48.1902L34.3889 50.5854L30.2827 54.2354L26.1766 50.5854Z" fill="url(#paint19_linear_314_1695)"/>
<path d="M35.0733 58.9119L30.3398 76.9903L25.6064 58.9119L30.3398 61.7634L35.0733 58.9119Z" fill="url(#paint20_linear_314_1695)"/>
<path d="M30.3398 61.7634V76.9903L25.6064 58.9119L30.3398 61.7634Z" fill="url(#paint21_linear_314_1695)"/>
<path d="M53.1519 23.3253C54.8818 23.1732 58.5469 22.6067 59.3681 21.5574C59.6153 23.6295 58.718 26.884 53.1519 23.3253Z" fill="url(#paint22_linear_314_1695)"/>
<path d="M53.1519 23.3253C54.8818 23.1732 58.5469 22.6067 59.3681 21.5574C59.6153 23.6295 56.268 23.3253 53.1519 23.3253Z" fill="url(#paint23_linear_314_1695)"/>
<path d="M51.8287 56.6305C61.4098 45.7264 53.3495 35.3204 48.1218 31.4803C48.3955 33.7159 47.4375 37.3544 46.9242 38.8942C52.4903 44.0497 52.5131 52.8665 51.8287 56.6305Z" fill="url(#paint24_linear_314_1695)"/>
<path d="M51.8287 56.6305C61.4098 45.7264 53.3495 35.3204 48.1218 31.4803C48.1788 32.1077 48.9315 32.792 49.3877 33.3623C54.9538 38.5178 57.1325 43.7418 51.8287 56.6305Z" fill="url(#paint25_linear_314_1695)"/>
<path d="M48.0189 11.1982C40.5366 10.0119 33.9515 15.6465 31.5943 18.612C32.233 13.6391 34.5979 10.4188 35.7004 9.43024C40.5366 5.27847 45.9278 8.87895 48.0189 11.1982Z" fill="url(#paint26_linear_314_1695)"/>
<path d="M48.0189 11.1982C42.2019 6.04518 33.9515 15.6465 31.5943 18.612C32.233 13.6391 34.5979 10.4188 35.7004 9.43024C40.5366 5.27847 45.9278 8.87895 48.0189 11.1982Z" fill="url(#paint27_linear_314_1695)"/>
<path d="M39.7693 58.7977C42.963 54.5547 43.305 49.2167 42.4496 40.4341C51.004 48.3042 48.1241 59.5199 46.0995 62.2195C43.0202 66.3256 36.861 70.3367 33.7814 73.3403C34.4467 70.2607 36.5756 63.0407 39.7693 58.7977Z" fill="url(#paint28_linear_314_1695)"/>
<path d="M42.4496 40.4341C51.669 50.8705 44.7879 60.3717 41.5943 64.6147C38.7542 68.388 35.418 71.7635 34.1527 72.9869C34.0245 73.1062 33.9006 73.224 33.7814 73.3403C33.8697 73.2581 33.9952 73.1392 34.1527 72.9869C37.3334 70.0259 43.1394 66.1666 46.0995 62.2195C48.1241 59.5199 51.004 48.3042 42.4496 40.4341Z" fill="url(#paint29_linear_314_1695)"/>
<path d="M56.2681 29.8839C54.2765 22.8733 46.5201 24.3325 42.8089 24.0668C45.6711 25.9869 47.9431 27.7375 51.0201 32.2372C53.4816 35.8369 57.643 36.0835 58.9847 35.5556C57.8405 35.3772 56.4775 30.5195 56.2681 29.8839Z" fill="url(#paint30_linear_314_1695)"/>
<path d="M54.3862 31.4806C50.2801 26.6179 46.1169 24.0667 42.809 24.0667C45.6711 25.9868 47.9431 27.7375 51.0201 32.2371C53.4817 35.8368 57.6431 36.0834 58.9848 35.5555C57.8405 35.3772 56.9067 34.4655 54.3862 31.4806Z" fill="url(#paint31_linear_314_1695)"/>
<path d="M51.783 14.2401C42.0309 10.1512 38.4631 15.7562 36.613 18.9908C39.6994 16.7937 45.7424 19.9634 47.9704 21.0379C48.3054 21.1994 48.6617 21.3073 49.0315 21.3467C55.5281 22.0395 58.9445 16.0377 59.539 14.2401C55.8389 15.7187 52.7851 14.8562 51.783 14.2401Z" fill="url(#paint32_linear_314_1695)"/>
<path d="M51.783 14.2401C42.0309 10.1512 38.4631 15.7562 36.613 18.9908C39.6936 16.7978 45.9108 18.0394 48.1813 18.7967C48.5341 18.9143 48.8899 19.0244 49.2589 19.0705C55.7438 19.8817 58.9445 16.0378 59.539 14.2401C55.8389 15.7187 52.7851 14.8562 51.783 14.2401Z" fill="url(#paint33_linear_314_1695)"/>
<path d="M23.5871 6.04292C27.3524 5.96185 29.8906 3.64322 30.2827 0.114014C30.6249 2.79442 32.3358 5.817 36.613 6.04512C33.3623 6.50136 30.2827 13.1739 30.2827 14.5996C29.3013 9.47443 25.1923 6.17368 23.5871 6.04292C23.5192 6.04438 23.4508 6.04512 23.3821 6.04512C23.4448 6.0376 23.5133 6.03691 23.5871 6.04292Z" fill="url(#paint34_linear_314_1695)"/>
<path d="M23.7692 6.03722C27.4342 5.88636 29.8969 3.58601 30.2827 0.114014C30.6249 2.79442 32.3358 5.817 36.613 6.04512C33.3623 6.50136 30.2827 11.2919 30.2827 12.7176C28.6053 7.79007 25.3859 6.13904 23.7692 6.03722C23.6416 6.04247 23.5126 6.04512 23.3821 6.04512C23.4973 6.03129 23.6271 6.02827 23.7692 6.03722Z" fill="url(#paint35_linear_314_1695)"/>
</g>
<defs>
<filter id="filter0_d_314_1695" x="0.587478" y="-4.61042e-05" width="59.2937" height="77.5607" filterUnits="userSpaceOnUse" color-interpolation-filters="sRGB">
<feFlood flood-opacity="0" result="BackgroundImageFix"/>
<feColorMatrix in="SourceAlpha" type="matrix" values="0 0 0 0 0 0 0 0 0 0 0 0 0 0 0 0 0 0 127 0" result="hardAlpha"/>
<feOffset dy="0.228119"/>
<feGaussianBlur stdDeviation="0.17109"/>
<feComposite in2="hardAlpha" operator="out"/>
<feColorMatrix type="matrix" values="0 0 0 0 0 0 0 0 0 0 0 0 0 0 0 0 0 0 0.39 0"/>
<feBlend mode="normal" in2="BackgroundImageFix" result="effect1_dropShadow_314_1695"/>
<feBlend mode="normal" in="SourceGraphic" in2="effect1_dropShadow_314_1695" result="shape"/>
</filter>
<linearGradient id="paint0_linear_314_1695" x1="1.46324" y1="22.8119" x2="7.33731" y2="24.5798" gradientUnits="userSpaceOnUse">
<stop stop-color="#F9D491"/>
<stop offset="0.539288" stop-color="#D3A159"/>
<stop offset="1" stop-color="#B78244"/>
</linearGradient>
<linearGradient id="paint1_linear_314_1695" x1="7.62246" y1="23.4962" x2="0.607789" y2="22.5837" gradientUnits="userSpaceOnUse">
<stop stop-color="#E4CE80"/>
<stop offset="0.528804" stop-color="#D5AB62"/>
<stop offset="1" stop-color="#C2823E"/>
</linearGradient>
<linearGradient id="paint2_linear_314_1695" x1="12.3458" y1="31.5945" x2="4.23752" y2="59.7102" gradientUnits="userSpaceOnUse">
<stop stop-color="#EBDC8D"/>
<stop offset="0.34218" stop-color="#DFAB61"/>
<stop offset="0.592795" stop-color="#C4833E"/>
<stop offset="1" stop-color="#C07D3A"/>
</linearGradient>
<linearGradient id="paint3_linear_314_1695" x1="17.8106" y1="21.7283" x2="6.70105" y2="58.5126" gradientUnits="userSpaceOnUse">
<stop stop-color="#642D07"/>
<stop offset="0.348954" stop-color="#CC8F4E"/>
<stop offset="0.606342" stop-color="#EAC376"/>
<stop offset="1" stop-color="#E7B870"/>
</linearGradient>
<linearGradient id="paint4_linear_314_1695" x1="12.4496" y1="11.0638" x2="29.1594" y2="21.158" gradientUnits="userSpaceOnUse">
<stop stop-color="#F6CF8B"/>
<stop offset="0.482918" stop-color="#D5A45B"/>
<stop offset="0.766928" stop-color="#C18D4B"/>
<stop offset="1" stop-color="#BA7E42"/>
</linearGradient>
<linearGradient id="paint5_linear_314_1695" x1="15.4722" y1="6.21622" x2="29.2734" y2="19.3901" gradientUnits="userSpaceOnUse">
<stop stop-color="#C07E3A"/>
<stop offset="0.374049" stop-color="#D4AA61"/>
<stop offset="1" stop-color="#E6D183"/>
</linearGradient>
<linearGradient id="paint6_linear_314_1695" x1="19.4546" y1="40.5481" x2="27.8853" y2="72.77" gradientUnits="userSpaceOnUse">
<stop stop-color="#E8D183"/>
<stop offset="0.515593" stop-color="#DEAA60"/>
<stop offset="1" stop-color="#C3823D"/>
</linearGradient>
<linearGradient id="paint7_linear_314_1695" x1="16.2707" y1="31.7655" x2="17.6394" y2="72.5989" gradientUnits="userSpaceOnUse">
<stop stop-color="#C88848"/>
<stop offset="0.563774" stop-color="#D1964F"/>
<stop offset="1" stop-color="#E9BF74"/>
</linearGradient>
<linearGradient id="paint8_linear_314_1695" x1="9.59825" y1="23.3821" x2="-2.49208" y2="37.9818" gradientUnits="userSpaceOnUse">
<stop stop-color="#F0CC7F"/>
<stop offset="0.611337" stop-color="#C07D39"/>
<stop offset="1" stop-color="#985C2A"/>
</linearGradient>
<linearGradient id="paint9_linear_314_1695" x1="38.9685" y1="17.1089" x2="0.131213" y2="39.8068" gradientUnits="userSpaceOnUse">
<stop stop-color="#774017"/>
<stop offset="0.331125" stop-color="#B3682D"/>
<stop offset="1" stop-color="#F6D084"/>
</linearGradient>
<linearGradient id="paint10_linear_314_1695" x1="30.9844" y1="18.4207" x2="3.496" y2="21.5573" gradientUnits="userSpaceOnUse">
<stop stop-color="#8C5223"/>
<stop offset="0.81517" stop-color="#DFAF62"/>
<stop offset="1" stop-color="#FAD592"/>
</linearGradient>
<linearGradient id="paint11_linear_314_1695" x1="24.8252" y1="17.8504" x2="-8.93651" y2="11.463" gradientUnits="userSpaceOnUse">
<stop stop-color="#EBDC8D"/>
<stop offset="0.593135" stop-color="#BF7C38"/>
<stop offset="1" stop-color="#915424"/>
</linearGradient>
<linearGradient id="paint12_linear_314_1695" x1="29.3703" y1="14.0864" x2="30.3398" y2="29.5985" gradientUnits="userSpaceOnUse">
<stop stop-color="#4F2701"/>
<stop offset="0.435024" stop-color="#C78746"/>
<stop offset="1" stop-color="#E8C97D"/>
</linearGradient>
<linearGradient id="paint13_linear_314_1695" x1="30.3398" y1="29.4845" x2="30.3398" y2="46.0801" gradientUnits="userSpaceOnUse">
<stop stop-color="#EAC376"/>
<stop offset="0.579532" stop-color="#D1A257"/>
<stop offset="1" stop-color="#834A20"/>
</linearGradient>
<linearGradient id="paint14_linear_314_1695" x1="41.2327" y1="40.2061" x2="36.043" y2="35.8148" gradientUnits="userSpaceOnUse">
<stop stop-color="#D89758"/>
<stop offset="0.447873" stop-color="#E1AD64"/>
<stop offset="1" stop-color="#E6C074"/>
</linearGradient>
<linearGradient id="paint15_linear_314_1695" x1="37.7538" y1="27.8877" x2="19.7894" y2="32.279" gradientUnits="userSpaceOnUse">
<stop stop-color="#E6C072"/>
<stop offset="0.745141" stop-color="#E8C374"/>
<stop offset="1" stop-color="#F2D389"/>
</linearGradient>
<linearGradient id="paint16_linear_314_1695" x1="19.3332" y1="40.2061" x2="24.5229" y2="35.8148" gradientUnits="userSpaceOnUse">
<stop stop-color="#D89758"/>
<stop offset="0.447873" stop-color="#E1AD64"/>
<stop offset="1" stop-color="#E6C074"/>
</linearGradient>
<linearGradient id="paint17_linear_314_1695" x1="22.812" y1="27.8877" x2="40.7764" y2="32.279" gradientUnits="userSpaceOnUse">
<stop stop-color="#E6C072"/>
<stop offset="0.745141" stop-color="#E8C374"/>
<stop offset="1" stop-color="#F2D389"/>
</linearGradient>
<linearGradient id="paint18_linear_314_1695" x1="30.3399" y1="49.1027" x2="30.3399" y2="57.315" gradientUnits="userSpaceOnUse">
<stop stop-color="#F9D491"/>
<stop offset="0.385847" stop-color="#C98848"/>
<stop offset="1" stop-color="#5F2802"/>
</linearGradient>
<linearGradient id="paint19_linear_314_1695" x1="21.0439" y1="52.5815" x2="33.1912" y2="51.726" gradientUnits="userSpaceOnUse">
<stop stop-color="#E5BC6A"/>
<stop offset="0.509761" stop-color="#C48441"/>
<stop offset="1" stop-color="#DFB76A"/>
</linearGradient>
<linearGradient id="paint20_linear_314_1695" x1="30.3398" y1="58.9119" x2="30.3398" y2="76.9903" gradientUnits="userSpaceOnUse">
<stop stop-color="#CD914A"/>
<stop offset="0.441969" stop-color="#E0B167"/>
<stop offset="1" stop-color="#E7CB7E"/>
</linearGradient>
<linearGradient id="paint21_linear_314_1695" x1="27.9731" y1="58.9119" x2="27.9731" y2="76.9903" gradientUnits="userSpaceOnUse">
<stop stop-color="#E7CD7F"/>
<stop offset="0.494402" stop-color="#DCA75E"/>
<stop offset="1" stop-color="#C88A44"/>
</linearGradient>
<linearGradient id="paint22_linear_314_1695" x1="59.0055" y1="22.698" x2="53.1314" y2="24.4659" gradientUnits="userSpaceOnUse">
<stop stop-color="#F9D491"/>
<stop offset="0.539288" stop-color="#D3A159"/>
<stop offset="1" stop-color="#B78244"/>
</linearGradient>
<linearGradient id="paint23_linear_314_1695" x1="52.8462" y1="23.3823" x2="59.8609" y2="22.4699" gradientUnits="userSpaceOnUse">
<stop stop-color="#E4CE80"/>
<stop offset="0.528804" stop-color="#D5AB62"/>
<stop offset="1" stop-color="#C2823E"/>
</linearGradient>
<linearGradient id="paint24_linear_314_1695" x1="48.1229" y1="31.4803" x2="56.2313" y2="59.5961" gradientUnits="userSpaceOnUse">
<stop stop-color="#EBDC8D"/>
<stop offset="0.34218" stop-color="#DFAB61"/>
<stop offset="0.592795" stop-color="#C4833E"/>
<stop offset="1" stop-color="#C07D3A"/>
</linearGradient>
<linearGradient id="paint25_linear_314_1695" x1="42.6582" y1="21.6142" x2="53.7677" y2="58.3984" gradientUnits="userSpaceOnUse">
<stop stop-color="#642D07"/>
<stop offset="0.348954" stop-color="#CC8F4E"/>
<stop offset="0.606342" stop-color="#EAC376"/>
<stop offset="1" stop-color="#E7B870"/>
</linearGradient>
<linearGradient id="paint26_linear_314_1695" x1="48.0189" y1="10.9497" x2="31.3092" y2="21.044" gradientUnits="userSpaceOnUse">
<stop stop-color="#F6CF8B"/>
<stop offset="0.482918" stop-color="#D5A45B"/>
<stop offset="0.766928" stop-color="#C18D4B"/>
<stop offset="1" stop-color="#BA7E42"/>
</linearGradient>
<linearGradient id="paint27_linear_314_1695" x1="44.9963" y1="6.10221" x2="31.1951" y2="19.2761" gradientUnits="userSpaceOnUse">
<stop stop-color="#C07E3A"/>
<stop offset="0.374049" stop-color="#D4AA61"/>
<stop offset="1" stop-color="#E6D183"/>
</linearGradient>
<linearGradient id="paint28_linear_314_1695" x1="41.0142" y1="40.4341" x2="32.5836" y2="72.656" gradientUnits="userSpaceOnUse">
<stop stop-color="#E8D183"/>
<stop offset="0.515593" stop-color="#DEAA60"/>
<stop offset="1" stop-color="#C3823D"/>
</linearGradient>
<linearGradient id="paint29_linear_314_1695" x1="44.1981" y1="31.6515" x2="42.8294" y2="72.4849" gradientUnits="userSpaceOnUse">
<stop stop-color="#C88848"/>
<stop offset="0.563774" stop-color="#D1964F"/>
<stop offset="1" stop-color="#E9BF74"/>
</linearGradient>
<linearGradient id="paint30_linear_314_1695" x1="50.8705" y1="23.2684" x2="62.9608" y2="37.868" gradientUnits="userSpaceOnUse">
<stop stop-color="#F0CC7F"/>
<stop offset="0.611337" stop-color="#C07D39"/>
<stop offset="1" stop-color="#985C2A"/>
</linearGradient>
<linearGradient id="paint31_linear_314_1695" x1="21.5002" y1="16.995" x2="60.3375" y2="39.6929" gradientUnits="userSpaceOnUse">
<stop stop-color="#774017"/>
<stop offset="0.331125" stop-color="#B3682D"/>
<stop offset="1" stop-color="#F6D084"/>
</linearGradient>
<linearGradient id="paint32_linear_314_1695" x1="29.4843" y1="18.3064" x2="56.9727" y2="21.4431" gradientUnits="userSpaceOnUse">
<stop stop-color="#8C5223"/>
<stop offset="0.81517" stop-color="#DFAF62"/>
<stop offset="1" stop-color="#FAD592"/>
</linearGradient>
<linearGradient id="paint33_linear_314_1695" x1="35.6435" y1="17.7361" x2="69.4052" y2="11.3488" gradientUnits="userSpaceOnUse">
<stop stop-color="#EBDC8D"/>
<stop offset="0.593135" stop-color="#BF7C38"/>
<stop offset="1" stop-color="#915424"/>
</linearGradient>
<linearGradient id="paint34_linear_314_1695" x1="29.9976" y1="0.114014" x2="30.5679" y2="17.337" gradientUnits="userSpaceOnUse">
<stop stop-color="#FFE8B5"/>
<stop offset="0.226331" stop-color="#F1C883"/>
<stop offset="0.326296" stop-color="#E9BE77"/>
<stop offset="0.594339" stop-color="#D8A960"/>
<stop offset="1" stop-color="#B98546"/>
</linearGradient>
<linearGradient id="paint35_linear_314_1695" x1="29.9976" y1="0.114014" x2="29.9976" y2="12.7176" gradientUnits="userSpaceOnUse">
<stop stop-color="#C07D39"/>
<stop offset="0.464906" stop-color="#D5AD63"/>
<stop offset="1" stop-color="#E2C87C"/>
</linearGradient>
</defs>
</svg>
